<svg width="26" height="25" viewBox="0 0 26 25" fill="none" xmlns="http://www.w3.org/2000/svg">
    <path
        d="M20.4663 5.45084C19.1411 4.85254 17.72 4.41173 16.2342 4.15926C16.2071 4.15439 16.1801 4.16657 16.1662 4.19092C15.9834 4.51077 15.781 4.92804 15.6392 5.25601C14.0411 5.02058 12.4512 5.02058 10.8859 5.25601C10.7441 4.92073 10.5343 4.51077 10.3507 4.19092C10.3368 4.16738 10.3098 4.1552 10.2827 4.15926C8.79772 4.41092 7.37664 4.85173 6.05064 5.45084C6.03916 5.45571 6.02933 5.46383 6.02277 5.47438C3.32732 9.43679 2.58892 13.3018 2.95116 17.1189C2.9528 17.1375 2.96345 17.1554 2.9782 17.1668C4.75659 18.4519 6.47925 19.232 8.16995 19.7491C8.197 19.7572 8.22568 19.7475 8.24289 19.7256C8.64283 19.1882 8.99932 18.6215 9.30501 18.0257C9.32304 17.9908 9.30583 17.9494 9.26895 17.9355C8.70347 17.7245 8.16504 17.4671 7.64709 17.1749C7.60611 17.1513 7.60284 17.0937 7.64053 17.0661C7.74953 16.9857 7.85853 16.9021 7.96261 16.8177C7.98146 16.8023 8.00769 16.799 8.02981 16.8088C11.4325 18.3374 15.1163 18.3374 18.4789 16.8088C18.501 16.7982 18.5272 16.8015 18.5469 16.8169C18.651 16.9013 18.76 16.9857 18.8698 17.0661C18.9075 17.0937 18.905 17.1513 18.8641 17.1749C18.3461 17.4728 17.8077 17.7245 17.2414 17.9347C17.2045 17.9485 17.1881 17.9908 17.2061 18.0257C17.5184 18.6207 17.8749 19.1873 18.2674 19.7248C18.2838 19.7475 18.3133 19.7572 18.3404 19.7491C20.0393 19.232 21.7619 18.4519 23.5403 17.1668C23.5559 17.1554 23.5657 17.1384 23.5674 17.1197C24.0009 12.7067 22.8413 8.8734 20.4933 5.47519C20.4876 5.46383 20.4777 5.45571 20.4663 5.45084ZM9.81312 14.7947C8.7887 14.7947 7.94458 13.8692 7.94458 12.7327C7.94458 11.5962 8.77231 10.6707 9.81312 10.6707C10.8621 10.6707 11.6981 11.6043 11.6817 12.7327C11.6817 13.8692 10.8539 14.7947 9.81312 14.7947ZM16.7218 14.7947C15.6974 14.7947 14.8533 13.8692 14.8533 12.7327C14.8533 11.5962 15.681 10.6707 16.7218 10.6707C17.7708 10.6707 18.6067 11.6043 18.5903 12.7327C18.5903 13.8692 17.7708 14.7947 16.7218 14.7947Z"
        fill="#E6F4FD" />
</svg>