<svg width="326" height="280" viewBox="0 0 326 280" fill="none" xmlns="http://www.w3.org/2000/svg">
<rect x="0.903305" y="0.653748" width="356.829" height="356.829" rx="178.415" fill="#E2F8FF"/>
<path d="M188.508 168.967H171.26C143.664 168.967 121.242 191.389 121.242 218.986V254.344H238.527V218.986C238.527 191.389 216.105 168.967 188.508 168.967Z" fill="#81E5FF"/>
<path d="M179.884 153.444C197.03 153.444 210.93 139.544 210.93 122.398C210.93 105.251 197.03 91.3515 179.884 91.3515C162.737 91.3515 148.837 105.251 148.837 122.398C148.837 139.544 162.737 153.444 179.884 153.444Z" fill="#174AFF"/>
<path d="M95.406 201.789H274.709L266.913 307.812H103.202L95.406 201.789Z" fill="#174AFF"/>
<path d="M180.381 269.613C188.561 269.613 195.193 262.981 195.193 254.801C195.193 246.62 188.561 239.989 180.381 239.989C172.2 239.989 165.569 246.62 165.569 254.801C165.569 262.981 172.2 269.613 180.381 269.613Z" fill="#81E5FF"/>
</svg>
